<?xml version="1.0" encoding="UTF-8" standalone="no"?>
<svg
   xmlns:dc="http://purl.org/dc/elements/1.1/"
   xmlns:cc="http://creativecommons.org/ns#"
   xmlns:rdf="http://www.w3.org/1999/02/22-rdf-syntax-ns#"
   xmlns:svg="http://www.w3.org/2000/svg"
   xmlns="http://www.w3.org/2000/svg"
   xmlns:sodipodi="http://sodipodi.sourceforge.net/DTD/sodipodi-0.dtd"
   xmlns:inkscape="http://www.inkscape.org/namespaces/inkscape"
   inkscape:version="1.0 (4035a4fb49, 2020-05-01)"
   sodipodi:docname="enter_number.svg"
   id="svg2756"
   version="1.1"
   width="24"
   viewBox="0 0 24 24"
   height="24">
  <metadata
     id="metadata2762">
    <rdf:RDF>
      <cc:Work
         rdf:about="">
        <dc:format>image/svg+xml</dc:format>
        <dc:type
           rdf:resource="http://purl.org/dc/dcmitype/StillImage" />
      </cc:Work>
    </rdf:RDF>
  </metadata>
  <defs
     id="defs2760" />
  <sodipodi:namedview
     inkscape:current-layer="svg2756"
     inkscape:window-maximized="0"
     inkscape:window-y="152"
     inkscape:window-x="912"
     inkscape:cy="12"
     inkscape:cx="12.45499"
     inkscape:zoom="65.935503"
     inkscape:guide-bbox="true"
     showguides="true"
     showgrid="false"
     id="namedview2758"
     inkscape:window-height="1873"
     inkscape:window-width="2771"
     inkscape:pageshadow="2"
     inkscape:pageopacity="0"
     guidetolerance="10"
     gridtolerance="10"
     objecttolerance="10"
     borderopacity="1"
     bordercolor="#666666"
     pagecolor="#ffffff">
    <sodipodi:guide
       id="guide2764"
       orientation="0,-1"
       position="25.767605,23.014188" />
    <sodipodi:guide
       id="guide2766"
       orientation="0,-1"
       position="28.187105,1.0012642" />
    <sodipodi:guide
       id="guide2770"
       orientation="1,0"
       position="0.83414848,19.920256" />
    <sodipodi:guide
       id="guide2772"
       orientation="1,0"
       position="22.992165,22.801859" />
  </sodipodi:namedview>
  <path
     id="path2752"
     fill="none"
     d="M0 0h24v24H0z" />
  <path
     style="stroke-width:1.2257"
     sodipodi:nodetypes="ssssssssscccccsssssccccssssccccc"
     id="path2754"
     d="M 20.471787,0.985812 H 3.3119712 c -1.348272,0 -2.45140284,1.103131 -2.45140284,2.4514024 V 20.597032 c 0,1.348271 1.10313084,2.451402 2.45140284,2.451402 H 20.471787 c 1.348271,0 2.451402,-1.103131 2.451402,-2.451402 V 3.4372144 c 0,-1.3482714 -1.103131,-2.4514024 -2.451402,-2.4514024 z m 0,19.61122 H 3.3119712 V 3.4372144 H 20.471787 Z M 13.11758,5.8886168 h -2.451404 c -1.3482698,0 -2.4514008,1.090874 -2.4514008,2.4514024 v 2.4514018 c 0,1.360529 1.103131,2.451404 2.4514008,2.451404 h 2.451404 v 2.451402 H 8.2147752 v 2.451402 H 13.11758 c 1.348271,0 2.451402,-1.090874 2.451402,-2.451402 V 8.3400192 c 0,-1.3605284 -1.103131,-2.4514024 -2.451402,-2.4514024 z m 0,4.9028042 H 10.666176 V 8.3400192 h 2.451404 z" />
</svg>
